<svg width="20" height="22" viewBox="0 0 20 22" fill="none" xmlns="http://www.w3.org/2000/svg">
<path d="M19.2112 15.9493L16.9585 12.9522V8.70396C17.0386 7.57441 16.7233 6.44951 16.0489 5.45933C15.3745 4.46914 14.3686 3.6541 13.1475 3.10842C13.1639 2.93453 13.1639 2.75988 13.1475 2.58599C13.1344 2.23568 13.0363 1.8909 12.8589 1.57138C12.6815 1.25185 12.4283 0.963835 12.1137 0.723794C11.7991 0.483753 11.4293 0.296393 11.0254 0.172425C10.6216 0.0484577 10.1916 -0.00968717 9.76 0.00131451C9.32844 -0.00968717 8.89843 0.0484577 8.49457 0.172425C8.09071 0.296393 7.72091 0.483753 7.4063 0.723794C7.0917 0.963835 6.83846 1.25185 6.66107 1.57138C6.48368 1.8909 6.38561 2.23568 6.37247 2.58599C6.3469 2.75951 6.3469 2.93489 6.37247 3.10842C5.1514 3.6541 4.14553 4.46914 3.47114 5.45933C2.79675 6.44951 2.48138 7.57441 2.56149 8.70396V12.9522L0.308785 15.9493C0.113923 16.2091 0.0074992 16.5062 0.000382013 16.8103C-0.00673518 17.1144 0.0857093 17.4146 0.268274 17.6802C0.45084 17.9459 0.716984 18.1674 1.03953 18.3222C1.36207 18.477 1.72946 18.5596 2.10418 18.5615H5.10214C5.1805 19.512 5.7094 20.401 6.57785 21.0418C7.4463 21.6826 8.58679 22.0255 9.76 21.9985C10.9332 22.0255 12.0737 21.6826 12.9422 21.0418C13.8106 20.401 14.3395 19.512 14.4179 18.5615H17.4158C17.7905 18.5596 18.1579 18.477 18.4805 18.3222C18.803 18.1674 19.0692 17.9459 19.2517 17.6802C19.4343 17.4146 19.5267 17.1144 19.5196 16.8103C19.5125 16.5062 19.4061 16.2091 19.2112 15.9493ZM8.48968 2.58599C8.51979 2.33544 8.66965 2.10445 8.90712 1.94253C9.14459 1.78062 9.45077 1.70068 9.76 1.71985C10.0692 1.70068 10.3754 1.78062 10.6129 1.94253C10.8504 2.10445 11.0002 2.33544 11.0303 2.58599C10.6073 2.56448 10.183 2.56448 9.76 2.58599C9.33697 2.56448 8.9127 2.56448 8.48968 2.58599ZM9.76 20.28C9.14798 20.305 8.5468 20.1421 8.07603 19.8236C7.60527 19.5052 7.29943 19.0546 7.21935 18.5615H12.3006C12.2206 19.0546 11.9147 19.5052 11.444 19.8236C10.9732 20.1421 10.372 20.305 9.76 20.28ZM2.10418 16.8429L4.37382 13.8596L4.6787 13.4334V8.70396C4.67463 7.67435 5.02674 6.66449 5.69496 5.78933C6.15604 5.27641 6.77259 4.86891 7.48481 4.60635C8.19704 4.34379 8.98077 4.23508 9.76 4.29077C10.5392 4.23508 11.323 4.34379 12.0352 4.60635C12.7474 4.86891 13.364 5.27641 13.825 5.78933C14.4933 6.66449 14.8454 7.67435 14.8413 8.70396V13.4334L15.1462 13.8596L17.4158 16.8429H2.10418Z" fill="black"/>
</svg>
