<svg width="18" height="18" viewBox="0 0 18 18" fill="none" xmlns="http://www.w3.org/2000/svg">
<path d="M7.33332 3.16667H10.6667C10.6667 2.72464 10.4911 2.30072 10.1785 1.98816C9.86594 1.67559 9.44202 1.5 8.99999 1.5C8.55796 1.5 8.13404 1.67559 7.82148 1.98816C7.50892 2.30072 7.33332 2.72464 7.33332 3.16667ZM6.08332 3.16667C6.08332 2.78364 6.15876 2.40437 6.30534 2.05051C6.45192 1.69664 6.66676 1.37511 6.93759 1.10427C7.20843 0.833434 7.52996 0.618594 7.88383 0.472018C8.2377 0.325442 8.61697 0.25 8.99999 0.25C9.38301 0.25 9.76228 0.325442 10.1161 0.472018C10.47 0.618594 10.7915 0.833434 11.0624 1.10427C11.3332 1.37511 11.5481 1.69664 11.6946 2.05051C11.8412 2.40437 11.9167 2.78364 11.9167 3.16667H16.7083C16.8741 3.16667 17.0331 3.23251 17.1503 3.34973C17.2675 3.46694 17.3333 3.62591 17.3333 3.79167C17.3333 3.95743 17.2675 4.1164 17.1503 4.23361C17.0331 4.35082 16.8741 4.41667 16.7083 4.41667H15.6083L14.6333 14.5092C14.5585 15.2825 14.1984 16.0002 13.6231 16.5224C13.0478 17.0445 12.2986 17.3336 11.5217 17.3333H6.47832C5.70154 17.3334 4.95257 17.0442 4.37745 16.5221C3.80232 15.9999 3.44227 15.2823 3.36749 14.5092L2.39166 4.41667H1.29166C1.1259 4.41667 0.966925 4.35082 0.849715 4.23361C0.732504 4.1164 0.666656 3.95743 0.666656 3.79167C0.666656 3.62591 0.732504 3.46694 0.849715 3.34973C0.966925 3.23251 1.1259 3.16667 1.29166 3.16667H6.08332ZM7.74999 7.125C7.74999 6.95924 7.68414 6.80027 7.56693 6.68306C7.44972 6.56585 7.29075 6.5 7.12499 6.5C6.95923 6.5 6.80026 6.56585 6.68305 6.68306C6.56584 6.80027 6.49999 6.95924 6.49999 7.125V13.375C6.49999 13.5408 6.56584 13.6997 6.68305 13.8169C6.80026 13.9342 6.95923 14 7.12499 14C7.29075 14 7.44972 13.9342 7.56693 13.8169C7.68414 13.6997 7.74999 13.5408 7.74999 13.375V7.125ZM10.875 6.5C11.0407 6.5 11.1997 6.56585 11.3169 6.68306C11.4341 6.80027 11.5 6.95924 11.5 7.125V13.375C11.5 13.5408 11.4341 13.6997 11.3169 13.8169C11.1997 13.9342 11.0407 14 10.875 14C10.7092 14 10.5503 13.9342 10.433 13.8169C10.3158 13.6997 10.25 13.5408 10.25 13.375V7.125C10.25 6.95924 10.3158 6.80027 10.433 6.68306C10.5503 6.56585 10.7092 6.5 10.875 6.5ZM4.61166 14.3892C4.6566 14.853 4.87269 15.2835 5.2178 15.5968C5.5629 15.91 6.01228 16.0834 6.47832 16.0833H11.5217C11.9877 16.0834 12.4371 15.91 12.7822 15.5968C13.1273 15.2835 13.3434 14.853 13.3883 14.3892L14.3533 4.41667H3.64666L4.61166 14.3892Z" fill="#B4B4B4"/>
</svg>
