<svg width="78" height="56" viewBox="0 0 78 56" fill="none" xmlns="http://www.w3.org/2000/svg">
<path d="M77.8861 8.87919C77.8861 11.2415 76.9589 13.5224 75.273 15.1516L36.0762 53.1122C34.306 54.7414 31.9458 55.7189 29.5013 55.7189C27.0567 55.7189 24.6965 54.7414 23.0106 53.1122L3.37008 34.1319C1.68419 32.5027 0.756958 30.2218 0.756958 27.8595C0.756958 25.4971 1.76849 23.2977 3.45437 21.587C5.22455 19.9578 7.50049 19.0617 9.94502 18.9803C12.3896 18.9803 14.6655 19.8763 16.4357 21.5056L29.5013 34.1319L62.2074 2.52527C63.9776 0.896065 66.2535 0 68.698 0C71.1426 0.0814604 73.4185 0.977525 75.1887 2.68819C76.8746 4.3174 77.8861 6.51684 77.8861 8.87919Z" fill="#FDFEFF"/>
</svg>
