<svg width="16" height="16" viewBox="0 0 16 16" fill="none" xmlns="http://www.w3.org/2000/svg">
<path d="M6.35526 7.43322C6.12778 7.66101 6 7.96979 6 8.29173V10H7.71872C8.04097 10 8.35001 9.87193 8.57782 9.64399L13.6444 4.57448C14.1185 4.1001 14.1185 3.33119 13.6444 2.85681L13.1439 2.35601C12.6694 1.8812 11.8997 1.88135 11.4254 2.35633L6.35526 7.43322Z" stroke="white" stroke-width="1.5" stroke-linecap="round" stroke-linejoin="round"/>
<path d="M14 8C14 10.8284 14 12.2426 13.1213 13.1213C12.2426 14 10.8284 14 8 14C5.17157 14 3.75736 14 2.87868 13.1213C2 12.2426 2 10.8284 2 8C2 5.17157 2 3.75736 2.87868 2.87868C3.75736 2 5.17157 2 8 2" stroke="white" stroke-width="1.5" stroke-linecap="round" stroke-linejoin="round"/>
</svg>
