<svg width="25" height="19" viewBox="0 0 25 19" fill="none" xmlns="http://www.w3.org/2000/svg">
<path fill-rule="evenodd" clip-rule="evenodd" d="M23.0479 2.59617L13.3154 10.656C13.0388 10.8851 12.6909 11.0105 12.3318 11.0105C11.9726 11.0105 11.6248 10.8851 11.3482 10.656L1.62029 2.59617C1.5681 2.75328 1.54155 2.91778 1.54167 3.08333V15.4167C1.54167 15.8255 1.70409 16.2177 1.99321 16.5068C2.28233 16.7959 2.67446 16.9583 3.08333 16.9583H21.5833C21.9922 16.9583 22.3843 16.7959 22.6735 16.5068C22.9626 16.2177 23.125 15.8255 23.125 15.4167V3.08333C23.1256 2.91786 23.0996 2.75337 23.0479 2.59617ZM3.08333 0H21.5833C22.4011 0 23.1853 0.32485 23.7636 0.903087C24.3418 1.48132 24.6667 2.26558 24.6667 3.08333V15.4167C24.6667 16.2344 24.3418 17.0187 23.7636 17.5969C23.1853 18.1752 22.4011 18.5 21.5833 18.5H3.08333C2.26558 18.5 1.48132 18.1752 0.903087 17.5969C0.32485 17.0187 0 16.2344 0 15.4167V3.08333C0 2.26558 0.32485 1.48132 0.903087 0.903087C1.48132 0.32485 2.26558 0 3.08333 0ZM2.75958 1.54167L11.3559 8.63796C11.6312 8.86536 11.977 8.99014 12.334 8.99098C12.6911 8.99183 13.0374 8.86868 13.3138 8.64258L21.9965 1.54167H2.75958Z" fill="#555555"/>
</svg>
