<svg width="16" height="16" viewBox="0 0 16 16" fill="none" xmlns="http://www.w3.org/2000/svg">
<path d="M12.9615 8.05208L12.6811 8.23232L12.9615 8.05208ZM13.6998 9.20069L13.9802 9.02045L13.6998 9.20069ZM2.30024 9.20069L2.01984 9.02045H2.01984L2.30024 9.20069ZM3.03853 8.05208L3.31894 8.23232L3.03853 8.05208ZM12.6864 12.0076L12.5957 11.6869L12.6864 12.0076ZM3.31357 12.0076L3.4043 11.6869H3.4043L3.31357 12.0076ZM5.56786 13.4945L5.61262 13.1642C5.47806 13.1459 5.3459 13.2111 5.2785 13.329C5.21109 13.4469 5.22192 13.5939 5.30588 13.7006L5.56786 13.4945ZM10.4321 13.4945L10.6941 13.7006C10.7781 13.5939 10.7889 13.4469 10.7215 13.329C10.6541 13.2111 10.5219 13.1459 10.3874 13.1642L10.4321 13.4945ZM12.1661 5.99992V6.46932H12.8328V5.99992H12.1661ZM12.6811 8.23232L13.4194 9.38092L13.9802 9.02045L13.2419 7.87185L12.6811 8.23232ZM2.58064 9.38092L3.31894 8.23232L2.75813 7.87185L2.01984 9.02045L2.58064 9.38092ZM3.83391 6.46932V5.99992H3.16725V6.46932H3.83391ZM12.5957 11.6869C9.58677 12.538 6.41323 12.538 3.4043 11.6869L3.22285 12.3284C6.35042 13.2131 9.64958 13.2131 12.7772 12.3284L12.5957 11.6869ZM3.31894 8.23232C3.65517 7.70922 3.83391 7.09581 3.83391 6.46932H3.16725C3.16725 6.96948 3.02445 7.45752 2.75813 7.87185L3.31894 8.23232ZM12.1661 6.46932C12.1661 7.09581 12.3448 7.70922 12.6811 8.23232L13.2419 7.87185C12.9756 7.45752 12.8328 6.96948 12.8328 6.46932H12.1661ZM2.01984 9.02045C1.23072 10.2481 1.8235 11.9325 3.22285 12.3284L3.4043 11.6869C2.4579 11.4192 2.02105 10.2515 2.58064 9.38092L2.01984 9.02045ZM13.4194 9.38092C13.979 10.2515 13.5421 11.4192 12.5957 11.6869L12.7772 12.3284C14.1765 11.9325 14.7693 10.2481 13.9802 9.02045L13.4194 9.38092ZM8 1.66659C10.2895 1.66659 12.1661 3.59511 12.1661 5.99992H12.8328C12.8328 3.25007 10.6804 0.999919 8 0.999919V1.66659ZM8 0.999919C5.31958 0.999919 3.16725 3.25007 3.16725 5.99992H3.83391C3.83391 3.59511 5.7105 1.66659 8 1.66659V0.999919ZM5.30588 13.7006C5.92812 14.4916 6.90456 14.9999 8 14.9999V14.3333C7.11435 14.3333 6.32905 13.923 5.82984 13.2884L5.30588 13.7006ZM5.5231 13.8248C7.16733 14.0476 8.83268 14.0476 10.4769 13.8248L10.3874 13.1642C8.80257 13.3789 7.19744 13.3789 5.61262 13.1642L5.5231 13.8248ZM8 14.9999C9.09545 14.9999 10.0719 14.4916 10.6941 13.7006L10.1702 13.2884C9.67096 13.923 8.88565 14.3333 8 14.3333V14.9999ZM8.83333 3.99992C8.83333 3.53968 8.46024 3.16659 8 3.16659V3.83325C8.09205 3.83325 8.16667 3.90787 8.16667 3.99992H8.83333ZM8.83333 6.66659V3.99992H8.16667V6.66659H8.83333ZM8 7.49992C8.46024 7.49992 8.83333 7.12682 8.83333 6.66659H8.16667C8.16667 6.75863 8.09205 6.83325 8 6.83325V7.49992ZM7.16667 6.66659C7.16667 7.12682 7.53976 7.49992 8 7.49992V6.83325C7.90795 6.83325 7.83333 6.75863 7.83333 6.66659H7.16667ZM7.16667 3.99992V6.66659H7.83333V3.99992H7.16667ZM8 3.16659C7.53976 3.16659 7.16667 3.53968 7.16667 3.99992H7.83333C7.83333 3.90787 7.90795 3.83325 8 3.83325V3.16659Z" fill="#B4B4B4"/>
</svg>
