<svg width="18" height="20" viewBox="0 0 18 20" fill="none" xmlns="http://www.w3.org/2000/svg">
<path d="M15.9643 8.75H15.0064V5.9375C15.0064 2.66406 12.2845 0 8.94 0C5.59548 0 2.87357 2.66406 2.87357 5.9375V8.75H1.91571C0.85808 8.75 0 9.58984 0 10.625V18.125C0 19.1602 0.85808 20 1.91571 20H15.9643C17.0219 20 17.88 19.1602 17.88 18.125V10.625C17.88 9.58984 17.0219 8.75 15.9643 8.75ZM11.8136 8.75H6.06643V5.9375C6.06643 4.38672 7.35554 3.125 8.94 3.125C10.5245 3.125 11.8136 4.38672 11.8136 5.9375V8.75Z" fill="#555555"/>
</svg>
