<svg width="23" height="20" viewBox="0 0 23 20" fill="none" xmlns="http://www.w3.org/2000/svg">
<path d="M20.6702 0.718815L1.39524 2.80548C1.21006 2.82561 1.03304 2.89253 0.880854 2.99994C0.728667 3.10734 0.606312 3.25171 0.525304 3.41945C0.444297 3.58718 0.407302 3.77277 0.417801 3.95875C0.428299 4.14472 0.485947 4.32497 0.585317 4.48252L0.602106 4.5092C0.680617 4.63378 0.77411 4.74827 0.88049 4.85009L5.85639 9.61838C5.92279 9.68183 6.00701 9.72346 6.09774 9.73768C6.18848 9.7519 6.28139 9.73803 6.36402 9.69794L13.0164 6.4764C13.1277 6.42374 13.2544 6.41368 13.3726 6.44811C13.4908 6.48255 13.5923 6.5591 13.6578 6.6633C13.7234 6.76749 13.7485 6.89209 13.7285 7.01355C13.7084 7.13501 13.6445 7.2449 13.5489 7.32245L7.76665 11.9266C7.69476 11.9838 7.64207 12.0616 7.61564 12.1495C7.58921 12.2375 7.59031 12.3314 7.61879 12.4187L9.7649 18.9669C9.81068 19.1068 9.87346 19.2407 9.95182 19.3653L9.96861 19.392C10.0678 19.5496 10.2054 19.6794 10.3685 19.7692C10.5316 19.859 10.7149 19.9058 10.9011 19.9052C11.0873 19.9047 11.2703 19.8568 11.4329 19.766C11.5955 19.6753 11.7323 19.5447 11.8305 19.3865L22.049 2.91139C22.1914 2.68196 22.2663 2.41715 22.2655 2.14716C22.2646 1.87717 22.1879 1.61286 22.0441 1.38436C21.9002 1.15585 21.6951 0.972349 21.4521 0.854762C21.2091 0.737174 20.9386 0.689756 20.6702 0.718815Z" fill="#1FA76A"/>
</svg>
