<svg width="20" height="19" viewBox="0 0 20 19" fill="none" xmlns="http://www.w3.org/2000/svg">
<path opacity="0.9" d="M10.0038 6.91315C9.2982 6.91315 8.6374 7.15947 8.13708 7.60966C7.63912 8.05985 7.363 8.65444 7.363 9.28937C7.363 9.92431 7.63912 10.5189 8.13708 10.9691C8.6374 11.4171 9.2982 11.6656 10.0038 11.6656C10.7095 11.6656 11.3703 11.4171 11.8706 10.9691C12.3686 10.5189 12.6447 9.92431 12.6447 9.28937C12.6447 8.65444 12.3686 8.05985 11.8706 7.60966C11.6262 7.38809 11.3354 7.21241 11.0149 7.09284C10.6944 6.97327 10.3508 6.91219 10.0038 6.91315ZM19.7341 11.9141L18.1907 10.727C18.2638 10.3235 18.3016 9.91157 18.3016 9.50173C18.3016 9.09189 18.2638 8.6778 18.1907 8.27645L19.7341 7.0894C19.8507 6.99959 19.9342 6.87997 19.9734 6.74645C20.0126 6.61292 20.0057 6.47183 19.9536 6.34192L19.9324 6.28671C19.5076 5.21791 18.8711 4.22721 18.0538 3.36261L18.0113 3.31801C17.9121 3.21301 17.7798 3.13753 17.6319 3.10151C17.4841 3.0655 17.3275 3.07065 17.183 3.11628L15.2666 3.72998C14.5586 3.20759 13.7704 2.79562 12.9161 2.50895L12.5456 0.706073C12.5176 0.570257 12.4444 0.445309 12.3356 0.347829C12.2269 0.250349 12.0877 0.184952 11.9367 0.160326L11.873 0.149709C10.6458 -0.0499029 9.35248 -0.0499029 8.12528 0.149709L8.06156 0.160326C7.91051 0.184952 7.77136 0.250349 7.66261 0.347829C7.55385 0.445309 7.48063 0.570257 7.45268 0.706073L7.0798 2.51744C6.23356 2.80639 5.44524 3.21736 4.74575 3.73422L2.81527 3.11628C2.67076 3.07029 2.51411 3.06495 2.36615 3.10099C2.21819 3.13702 2.08592 3.21272 1.98691 3.31801L1.94443 3.36261C1.12855 4.22813 0.492241 5.21858 0.0658702 6.28671L0.0446302 6.34192C-0.0615699 6.60736 0.0257502 6.90465 0.26411 7.0894L1.82643 8.28919C1.75327 8.68841 1.71787 9.09613 1.71787 9.4996C1.71787 9.90732 1.75327 10.315 1.82643 10.71L0.26883 11.9098C0.152236 11.9996 0.0687882 12.1192 0.0295827 12.2528C-0.00962273 12.3863 -0.00272807 12.5274 0.0493501 12.6573L0.0705902 12.7125C0.497751 13.7806 1.12787 14.7681 1.94915 15.6366L1.99163 15.6812C2.09088 15.7862 2.22316 15.8617 2.37103 15.8977C2.5189 15.9337 2.67543 15.9286 2.81999 15.8829L4.75047 15.265C5.45375 15.7852 6.23728 16.1972 7.08452 16.4818L7.4574 18.2931C7.48535 18.4289 7.55857 18.5539 7.66733 18.6514C7.77608 18.7489 7.91523 18.8143 8.06628 18.8389L8.13 18.8495C9.36927 19.0502 10.6384 19.0502 11.8777 18.8495L11.9414 18.8389C12.0924 18.8143 12.2316 18.7489 12.3404 18.6514C12.4491 18.5539 12.5223 18.4289 12.5503 18.2931L12.9208 16.4903C13.7751 16.2015 14.5634 15.7916 15.2714 15.2692L17.1877 15.8829C17.3322 15.9289 17.4888 15.9343 17.6368 15.8982C17.7848 15.8622 17.917 15.7865 18.016 15.6812L18.0585 15.6366C18.8798 14.7638 19.5099 13.7806 19.9371 12.7125L19.9583 12.6573C20.0598 12.394 19.9725 12.0988 19.7341 11.9141ZM10.0038 13.0225C7.71228 13.0225 5.85496 11.3513 5.85496 9.28937C5.85496 7.22743 7.71228 5.55621 10.0038 5.55621C12.2954 5.55621 14.1527 7.22743 14.1527 9.28937C14.1527 11.3513 12.2954 13.0225 10.0038 13.0225Z" fill="white"/>
</svg>
